<?xml version="1.0" encoding="utf-8"?>
<!-- Generator: Adobe Illustrator 22.1.0, SVG Export Plug-In . SVG Version: 6.00 Build 0)  -->
<svg version="1.1" id="Ebene_1" xmlns="http://www.w3.org/2000/svg" xmlns:xlink="http://www.w3.org/1999/xlink" x="0px" y="0px"
	 viewBox="0 0 1024 1024" style="enable-background:new 0 0 1024 1024;" xml:space="preserve">
<style type="text/css">
	.st0{fill:url(#SVGID_1_);}
	.st1{fill:#FFFFFF;}
</style>
<title>dog_scanner_icon_rounded</title>
<linearGradient id="SVGID_1_" gradientUnits="userSpaceOnUse" x1="7199.4199" y1="-6687.1401" x2="7199.4199" y2="-5663.1401" gradientTransform="matrix(1 0 0 -1 -6687.4399 -5663.1401)">
	<stop  offset="0" style="stop-color:#339CA6"/>
	<stop  offset="1" style="stop-color:#4BE4F2"/>
</linearGradient>
<path class="st0" d="M0,102.4C0,45.8,45.9,0,102.4,0h819.1C978.1,0,1024,45.8,1024,102.4v819.2c0,56.5-45.9,102.4-102.4,102.4H102.4
	C45.9,1024,0,978.2,0,921.6V102.4z"/>
<path class="st1" d="M729.2,404.4c-25.6-40.3-59.1-71.4-95.5-76.5c-23.5-3.3-48.6,36.5-48.6,36.5s-43.8-16.2-73-16.2
	s-73,16.2-73,16.2s-25.1-39.8-48.6-36.5c-36.5,5.1-69.9,36.2-95.5,76.5c-35.1,55.2-55.4,137.4-18,166.7c26.1,20.5,58.2-29.4,77-81.1
	c16.7-46.1,43.8-77.1,60.8-68.9c15.1,7.3-21.7,44.6-37.4,72.8c-12.3,22.1-30.8,60.6-27.5,101.5c3.8,46.9,21.5,81,55.7,107
	c27.8,22,62.5,34.7,106,34.9c43.9,0.1,79.3-12.8,107.1-35c34-26,51.8-60.1,55.6-106.9c3.3-40.9-15.2-79.4-27.5-101.5
	c-15.7-28.2-52.5-65.5-37.4-72.8c17-8.2,44.1,22.9,60.8,68.9c18.8,51.6,50.9,101.5,77,81.1C784.6,541.8,764.2,459.6,729.2,404.4z
	 M454.7,516.1c0-9.1,7.3-16.4,16.4-16.4c9.1,0,16.4,7.3,16.4,16.4c0,9.1-7.3,16.4-16.4,16.4c0,0,0,0,0,0
	C462,532.5,454.7,525.1,454.7,516.1z M512,639c-22.6,0-41-18.4-41-41s18.4-41,41-41s41,18.4,41,41l0,0C553,620.6,534.7,639,512,639z
	 M553,532.5c-9,0-16.4-7.3-16.4-16.4c0-9,7.3-16.4,16.4-16.4c9,0,16.4,7.3,16.4,16.4S562.1,532.5,553,532.5
	C553,532.5,553,532.5,553,532.5L553,532.5z"/>
<polygon class="st1" points="184.3,368.6 245.8,368.6 245.8,245.8 368.6,245.8 368.6,184.3 184.3,184.3 "/>
<polygon class="st1" points="839.7,655.4 778.2,655.4 778.2,778.2 655.4,778.2 655.4,839.7 839.7,839.7 "/>
</svg>
